<?xml version="1.0" encoding="UTF-8"?>
<svg version="1.1" xmlns="http://www.w3.org/2000/svg" width="600" height="579">
<path d="M0 0 C10.43379918 6.55402924 20.71206737 13.34542737 31 20.125 C31.95962646 20.75704346 32.91925293 21.38908691 33.90795898 22.0402832 C49.056718 32.02262313 64.12289406 42.12160964 79.14630127 52.29135132 C94.91573778 62.96266726 110.78190924 73.48132006 126.69726562 83.93359375 C127.55106812 84.49436615 128.40487061 85.05513855 129.2845459 85.63290405 C130.97426857 86.74267132 132.66412679 87.85223223 134.35412598 88.96157837 C141.51927406 93.67049395 148.65252664 98.4266462 155.77011108 103.20713806 C167.75277451 111.22987349 180.15625842 118.56395284 192.60839844 125.82910156 C195.45596297 127.4912171 198.25565608 129.17043739 201 131 C204.56089001 130.66331328 207.00646289 129.57600095 210 127.6875 C214.65541119 124.99428691 219.34981405 123.58910105 224.5 122.11328125 C229.57290831 120.49968876 234.34783348 118.35203034 239.19921875 116.171875 C242 115 242 115 244 115 C238.15425883 102.76679372 232.30220756 90.53662636 226.4375 78.3125 C225.92541992 77.24459229 225.41333984 76.17668457 224.88574219 75.07641602 C224.4065332 74.07795654 223.92732422 73.07949707 223.43359375 72.05078125 C222.80022095 70.73074097 222.80022095 70.73074097 222.15405273 69.3840332 C221.41353247 67.85427218 220.64679297 66.33677315 219.84790039 64.83666992 C219 63 219 63 219 60.5625 C220.4768734 56.77801191 222.64254259 55.19526062 226 53 C229.92365958 53.27209414 231.92946849 54.42352882 234.70703125 57.1328125 C235.37669922 57.77476563 236.04636719 58.41671875 236.73632812 59.078125 C237.42146484 59.75359375 238.10660156 60.4290625 238.8125 61.125 C240.17187633 62.44144866 241.53255226 63.75655669 242.89453125 65.0703125 C243.57080566 65.72410889 244.24708008 66.37790527 244.94384766 67.05151367 C250.08533056 71.92377383 255.50453858 76.47243759 261 80.9375 C261.94875 81.70964844 262.8975 82.48179688 263.875 83.27734375 C264.57625 83.84582031 265.2775 84.41429688 266 85 C266.11698741 78.86466036 265.94756167 72.8083786 265.5 66.6875 C264.76394816 56.46877347 264.90797521 46.23882011 265 36 C266.24663331 35.49166409 267.49749387 34.99368855 268.75 34.5 C269.44609375 34.2215625 270.1421875 33.943125 270.859375 33.65625 C273 33 273 33 277 33 C287.89 55.275 287.89 55.275 299 78 C300.82133553 75.26799671 301.8315622 73.03867998 302.953125 69.984375 C303.32244141 68.98680176 303.69175781 67.98922852 304.07226562 66.96142578 C304.46091797 65.90165527 304.84957031 64.84188477 305.25 63.75 C314.20026027 39.59947947 314.20026027 39.59947947 317 34 C322.94 34.495 322.94 34.495 329 35 C330.07731674 39.30926694 330.31073156 43.41369962 330.5 47.82421875 C330.54060547 48.68505569 330.58121094 49.54589264 330.62304688 50.43281555 C330.75251062 53.18421586 330.87672917 55.93581577 331 58.6875 C331.1236602 61.42130827 331.248567 64.15503549 331.37695312 66.8886261 C331.45662475 68.5870524 331.53362178 70.28560715 331.60742188 71.98429871 C331.64416016 72.77153824 331.68089844 73.55877777 331.71875 74.36987305 C331.74904297 75.04841843 331.77933594 75.72696381 331.81054688 76.42607117 C332.09523736 80.29390417 332.57171384 84.14542456 333 88 C344.22 76.78 355.44 65.56 367 54 C374.21311475 56.8852459 374.21311475 56.8852459 377 60 C376.73279301 66.50459454 374.75480954 72.04687013 372.4375 78.08203125 C372.0861499 79.01802658 371.7347998 79.95402191 371.37280273 80.91838074 C370.25672035 83.88625087 369.12866427 86.84939486 368 89.8125 C367.24137176 91.82195785 366.48355105 93.83172076 365.7265625 95.84179688 C364.06560896 100.25097288 362.39683183 104.65710098 360.72094727 109.06062317 C360.11342357 110.69488609 359.55135291 112.34594127 359 114 C360.16144531 114.35964844 361.32289063 114.71929687 362.51953125 115.08984375 C369.73765147 117.49588382 376.69270148 120.58267504 383.6875 123.5625 C385.77583726 124.45066566 387.86460147 125.33777075 389.95454407 126.22215271 C391.84274268 127.02133985 393.72940215 127.82416059 395.6159668 128.62719727 C402.67296907 131.8237997 402.67296907 131.8237997 410 131 C412.3314653 129.22693503 414.46458395 127.45989125 416.625 125.5 C417.87669057 124.39479778 419.12930371 123.29063959 420.3828125 122.1875 C420.99801758 121.64222656 421.61322266 121.09695312 422.24707031 120.53515625 C424.61532839 118.46111631 427.05048715 116.47705488 429.5 114.5 C434.29308766 110.60649477 438.9878177 106.60961222 443.66796875 102.58203125 C448.12497577 98.74648055 452.60657473 94.94149308 457.10058594 91.14941406 C461.12821793 87.74705423 465.12882616 84.31421392 469.125 80.875 C473.2868418 77.29373398 477.48269169 73.7684187 481.75 70.3125 C486.12507747 66.76254679 490.30549192 63.04436179 494.46875 59.25 C497.97799486 56.13067124 501.63162123 53.20250867 505.28125 50.25 C507.92147729 48.06498431 510.4672972 45.80828609 513 43.5 C517.29991791 39.58108748 521.75919547 35.90829131 526.28125 32.25 C528.92147729 30.06498431 531.4672972 27.80828609 534 25.5 C538.21540458 21.66239111 542.55718778 18.03601143 547.015625 14.484375 C549.24267522 12.63044314 551.33144033 10.76263242 553.421875 8.765625 C563.58033489 -0.77620051 563.58033489 -0.77620051 570.375 -0.75 C573.0859375 -0.421875 573.0859375 -0.421875 575 0 C574.41394328 8.3271513 572.24109004 16.10678406 570.00390625 24.109375 C569.58255561 25.6359172 569.161786 27.16261988 568.74154663 28.68946838 C567.59644777 32.84277175 566.4425971 36.99359833 565.2870903 41.14401627 C564.31429862 44.64265447 563.34680973 48.1427494 562.37939167 51.64287663 C553.46195662 83.90463688 544.44194368 116.13838891 535.39795685 148.36487675 C534.31958026 152.20787917 533.24224448 156.05117304 532.16496658 159.89448357 C531.43397961 162.50049743 530.7013324 165.10604031 529.96859741 167.71156311 C528.85573236 171.67415846 527.7547457 175.63989297 526.66172409 179.60800552 C526.20556604 181.25692166 525.74546079 182.90474921 525.28212357 184.55166245 C524.56564032 187.10236979 523.86274856 189.65650432 523.16235352 192.21166992 C522.94464515 192.97622403 522.72693678 193.74077814 522.50263119 194.52850056 C521.15919349 199.49916763 520.79831719 203.85040508 521 209 C521.59949463 208.62713867 522.19898926 208.25427734 522.81665039 207.87011719 C525.56446138 206.16211159 528.31346987 204.45604262 531.0625 202.75 C532.00544922 202.16347656 532.94839844 201.57695312 533.91992188 200.97265625 C548.00515293 192.23686835 548.00515293 192.23686835 551.625 191.375 C555.50153542 192.3951409 556.89607329 194.72034953 559 198 C558.74581845 202.37918507 556.81812509 205.114346 554.3125 208.625 C553.73604736 209.43904297 553.73604736 209.43904297 553.14794922 210.26953125 C548.78119854 216.39616867 544.28639491 222.43427504 539.78637695 228.46337891 C538.9214563 229.62619385 538.9214563 229.62619385 538.0390625 230.8125 C537.52553223 231.49957031 537.01200195 232.18664062 536.48291016 232.89453125 C534.86176843 235.19626425 533.42170144 237.57097302 532 240 C532.56518845 239.91230347 533.13037689 239.82460693 533.71269226 239.73425293 C539.60065803 238.8214118 545.48941704 237.91382741 551.37866211 237.00927734 C553.57580978 236.67110498 555.77275238 236.33159738 557.96948242 235.99072266 C561.12886304 235.50070794 564.28895247 235.01551561 567.44921875 234.53125 C568.42960617 234.37813354 569.40999359 234.22501709 570.42008972 234.06726074 C571.34066666 233.92711548 572.26124359 233.78697021 573.2097168 233.64257812 C574.4188398 233.45604675 574.4188398 233.45604675 575.65238953 233.26574707 C578.1208633 232.9863184 580.51789101 232.95470145 583 233 C583.70180531 234.4096347 584.38593958 235.82807641 585.0625 237.25 C585.44535156 238.03890625 585.82820312 238.8278125 586.22265625 239.640625 C587.13603166 242.41288003 587.11486231 243.32673823 586 246 C583.86132813 247.67236328 583.86132813 247.67236328 581.03125 249.3203125 C579.99218506 249.93382568 578.95312012 250.54733887 577.88256836 251.17944336 C576.7663208 251.82147705 575.65007324 252.46351074 574.5 253.125 C573.37408447 253.7857251 572.24816895 254.4464502 571.08813477 255.12719727 C568.80942598 256.46300326 566.52761187 257.79352653 564.24267578 259.11865234 C560.53850546 261.26775161 556.85053358 263.44330091 553.1640625 265.62255859 C550.11436702 267.42361779 547.05766329 269.2125077 544 271 C552.80379165 273.35273742 561.61489513 275.66595482 570.4609375 277.85546875 C571.7284082 278.1692749 572.99587891 278.48308105 574.30175781 278.80639648 C576.83940615 279.43270624 579.37781469 280.05594425 581.91699219 280.67602539 C583.08133789 280.96340576 584.24568359 281.25078613 585.4453125 281.546875 C586.49219238 281.80307617 587.53907227 282.05927734 588.61767578 282.32324219 C591 283 591 283 592 284 C592.12494616 285.62139437 592.17571624 287.24884122 592.1875 288.875 C592.20876953 290.20144531 592.20876953 290.20144531 592.23046875 291.5546875 C592 294 592 294 590 297 C588.03334045 297.61978149 588.03334045 297.61978149 585.59790039 297.96728516 C584.68677994 298.10397614 583.77565948 298.24066711 582.83692932 298.38150024 C581.85046921 298.51599579 580.86400909 298.65049133 579.84765625 298.7890625 C578.33104652 299.0121962 578.33104652 299.0121962 576.78379822 299.23983765 C573.54502522 299.71397506 570.30401885 300.17004999 567.0625 300.625 C563.82516442 301.09066553 560.58839083 301.55999429 557.35191345 302.03158569 C555.33589334 302.32410386 553.31926945 302.61249601 551.30201721 302.89639282 C550.3877446 303.02677948 549.47347198 303.15716614 548.53149414 303.29150391 C547.72700333 303.40458893 546.92251251 303.51767395 546.09364319 303.63418579 C543.81686841 303.97869806 543.81686841 303.97869806 541 305 C549.59857877 311.77379999 558.2207193 318.51634263 566.86865234 325.22705078 C570.60082758 328.12506288 574.32075483 331.03474696 578 334 C577.54738642 335.43931117 577.08767021 336.87638999 576.625 338.3125 C576.24214844 339.51326172 576.24214844 339.51326172 575.8515625 340.73828125 C575 343 575 343 573 346 C567.16039574 345.30091694 561.59733684 343.97661551 555.91015625 342.49609375 C554.96563095 342.2533522 554.02110565 342.01061066 553.04795837 341.76051331 C550.05189069 340.98967592 547.05719028 340.21366942 544.0625 339.4375 C542.02287477 338.91176664 539.9831621 338.3863724 537.94335938 337.86132812 C532.96121894 336.57814156 527.98029761 335.29031958 523 334 C526.76801893 341.56324595 530.53663433 349.12476904 534.40625 356.63671875 C534.921875 357.64541016 535.4375 358.65410156 535.96875 359.69335938 C537.01348792 361.73619513 538.06591268 363.77511344 539.125 365.81054688 C539.6303125 366.80505859 540.135625 367.79957031 540.65625 368.82421875 C541.10806641 369.70166748 541.55988281 370.57911621 542.02539062 371.4831543 C543.09686209 374.2501381 543.3927415 376.06206185 543 379 C540.43087375 381.6886205 538.45506785 383.67241928 534.76171875 384.50390625 C530.4130287 383.71043947 527.78104947 380.9679716 524.5 378.125 C523.07281171 376.92565733 521.6444098 375.72775748 520.21484375 374.53125 C519.50569824 373.933125 518.79655273 373.335 518.06591797 372.71875 C515.12574849 370.27266242 512.1071553 367.93890117 509.0625 365.625 C504.01579477 361.78053814 499.00913095 357.89599074 494 354 C494 370.5 494 387 494 404 C485.82608696 406.72463768 485.82608696 406.72463768 483 406 C477.98848019 398.71601518 474.18478684 390.74683423 470.19726562 382.87304688 C469.68486328 381.87466797 469.17246094 380.87628906 468.64453125 379.84765625 C467.95387573 378.4865271 467.95387573 378.4865271 467.24926758 377.09790039 C466.17330874 374.86178807 466.17330874 374.86178807 464 374 C463.58488159 375.08498779 463.58488159 375.08498779 463.16137695 376.19189453 C462.05051142 378.87786791 460.80229571 381.37548938 459.41796875 383.9296875 C458.90500244 384.87763184 458.39203613 385.82557617 457.86352539 386.80224609 C457.31043701 387.81625488 456.75734863 388.83026367 456.1875 389.875 C455.6092749 390.93928223 455.0310498 392.00356445 454.43530273 393.10009766 C450.02635557 401.18704911 445.50541747 409.20653736 440.94799805 417.21044922 C436.24125998 425.50552044 431.72851001 433.89839787 427.23071289 442.30810547 C423.41316391 449.42693243 419.50024806 456.48237328 415.5 463.5 C410.1924584 472.81271348 405.07771809 482.2189342 400.01513672 491.66674805 C396.75980981 497.73909761 393.48234331 503.79593099 390.125 509.8125 C389.73884521 510.50480713 389.35269043 511.19711426 388.95483398 511.91040039 C388.11777737 513.41053846 387.28061363 514.91061676 386.44335938 516.41064453 C384.09441802 520.62459447 381.75185583 524.84203925 379.41772461 529.06420898 C378.0560515 531.52643653 376.68328703 533.98201407 375.30297852 536.43383789 C372.00329986 542.32759717 368.8342985 548.22978699 366.00054932 554.36395264 C364.70277233 557.16737842 363.35893799 559.94772393 362.01373291 562.7286377 C361.38657622 564.06134062 360.78324051 565.40555234 360.20599365 566.76062012 C358.3585665 571.08878545 356.44479337 574.68326213 353 578 C348.3002041 579.48147737 343.8238591 579.22370707 338.96621704 579.03771973 C334.85032665 578.98538025 330.7704116 579.2659529 326.66436481 579.53026199 C320.94992124 579.89142059 315.23821225 580.11173152 309.5148344 580.27350998 C305.77694762 580.38323258 302.05168553 580.53663758 298.32055664 580.79003906 C274.22251304 582.38243954 274.22251304 582.38243954 267.34661865 576.87451172 C262.76355182 571.44506836 259.8837322 565.3227157 257.1890564 558.79174805 C255.65820744 555.19751603 253.76393549 552.14095025 251.625 548.875 C251.02042969 547.89466797 250.41585937 546.91433594 249.79296875 545.90429688 C249.20128906 544.94587891 248.60960937 543.98746094 248 543 C242.39884064 533.9130706 236.83120268 524.80661446 231.2890625 515.68359375 C226.88502264 508.43984493 222.44776632 501.21696949 218 494 C212.39952847 484.91264485 206.83120519 475.80661859 201.2890625 466.68359375 C196.88502264 459.43984493 192.44776632 452.21696949 188 445 C182.97587846 436.84783344 177.97200746 428.68405622 173 420.5 C166.0585599 409.07931795 159.07180872 397.68708714 152.04638672 386.31787109 C150.28897221 383.46851972 148.53800571 380.61539757 146.78996277 377.76029968 C145.07405084 374.96166099 143.34870833 372.1688413 141.625 369.375 C140.98828369 368.33093994 140.35156738 367.28687988 139.69555664 366.21118164 C139.10766357 365.26235107 138.51977051 364.31352051 137.9140625 363.3359375 C137.3979541 362.49595215 136.8818457 361.6559668 136.35009766 360.79052734 C135.90456543 360.19965332 135.4590332 359.6087793 135 359 C134.34 359 133.68 359 133 359 C132.71914551 359.57218262 132.43829102 360.14436523 132.14892578 360.73388672 C125.77175426 373.6926097 119.14418052 386.4473184 112 399 C106.84374012 399.2062504 104.09792156 398.69930719 99 397 C99.33 380.83 99.66 364.66 100 348 C90.4619002 355.13499624 90.4619002 355.13499624 81.0625 362.4375 C79.88939496 363.35816472 78.71621594 364.27873519 77.54296875 365.19921875 C75.13146471 367.09678476 72.74264454 369.01935768 70.36328125 370.95703125 C69.20065447 371.88818772 68.03789898 372.8191835 66.875 373.75 C66.34269775 374.1927124 65.81039551 374.6354248 65.26196289 375.09155273 C61.56145474 378.02639751 61.56145474 378.02639751 58.83984375 377.8984375 C55.61364706 376.32301237 53.45476995 374.62603297 51 372 C51.14828934 366.12511189 53.32191254 361.78020955 56.03515625 356.73046875 C56.63232704 355.58714836 56.63232704 355.58714836 57.24156189 354.42073059 C58.50548317 352.00439546 59.78312899 349.59568528 61.0625 347.1875 C62.34318619 344.76036794 63.62087691 342.33174045 64.89414978 339.90071106 C65.68503707 338.39238682 66.48060922 336.8865081 67.28126526 335.38334656 C69.29683343 331.88307024 69.29683343 331.88307024 70 328 C64.71589019 329.24300537 59.43230093 330.48819251 54.14916992 331.73535156 C52.35406197 332.15879469 50.55881635 332.58165471 48.76342773 333.00390625 C46.17394665 333.6130269 43.58497763 334.22428422 40.99609375 334.8359375 C39.80348183 335.11574966 39.80348183 335.11574966 38.58677673 335.4012146 C35.06605852 336.23494925 31.57564293 337.10505818 28.10571289 338.13134766 C24.73268398 339.07476695 23.19022039 339.46577694 20 338 C17.50590069 335.04666971 15.97630504 332.48093487 16.0390625 328.55859375 C17.36977504 325.01543637 19.76140767 323.42275084 22.75 321.3125 C23.93904879 320.4365327 25.12784374 319.56022075 26.31640625 318.68359375 C26.92758301 318.23999512 27.53875977 317.79639648 28.16845703 317.33935547 C31.04673452 315.23455271 33.86611944 313.0551385 36.6875 310.875 C37.22109131 310.46499756 37.75468262 310.05499512 38.30444336 309.63256836 C43.25710987 305.82229973 48.14002192 301.92747664 53 298 C36.35630245 295.17688032 19.69061727 292.53051294 3 290 C2.01 283.565 2.01 283.565 1 277 C11.61769026 274.13155391 22.26401169 271.40219272 32.9375 268.75 C34.41083531 268.38292495 35.88414273 268.01573791 37.35742188 267.6484375 C40.90462919 266.76434149 44.4522049 265.88173473 48 265 C48 264.34 48 263.68 48 263 C46.19271487 261.65715604 46.19271487 261.65715604 43.8203125 260.34765625 C42.91877441 259.82324951 42.01723633 259.29884277 41.08837891 258.75854492 C39.62150635 257.91900269 39.62150635 257.91900269 38.125 257.0625 C36.1138933 255.8944164 34.10348772 254.72512492 32.09375 253.5546875 C31.07667969 252.96397461 30.05960938 252.37326172 29.01171875 251.76464844 C24.51423462 249.1294494 20.06620254 246.41618573 15.625 243.6875 C14.8530127 243.2138501 14.08102539 242.7402002 13.28564453 242.25219727 C11.52287105 241.16958253 9.76128326 240.08503746 8 239 C8.11458693 237.56163249 8.24209116 236.12429034 8.375 234.6875 C8.47941406 233.48673828 8.47941406 233.48673828 8.5859375 232.26171875 C9 230 9 230 11 227 C17.11208148 225.85497974 23.98757561 227.3978487 30.06640625 228.3125 C30.98590561 228.44567627 31.90540497 228.57885254 32.85276794 228.71606445 C35.75692066 229.13807538 38.65968676 229.56888196 41.5625 230 C43.54483647 230.28964759 45.52725771 230.57871567 47.50976562 230.8671875 C52.34084915 231.57143204 57.17071037 232.28356169 62 233 C54.58435713 222.67750028 47.11427661 212.40576941 39.4609375 202.2578125 C39.03256592 201.68788574 38.60419434 201.11795898 38.1628418 200.53076172 C37.18288414 199.24074818 36.17814498 197.9696146 35.16796875 196.703125 C34 195 34 195 33.9375 192.625 C35.3992856 189.01352969 37.60121445 186.00017026 41 184 C44.56388066 184.43887057 47.11789273 185.43354942 50.14453125 187.328125 C50.90443359 187.79863281 51.66433594 188.26914063 52.44726562 188.75390625 C53.22779297 189.24761719 54.00832031 189.74132812 54.8125 190.25 C55.58142578 190.72824219 56.35035156 191.20648438 57.14257812 191.69921875 C59.4329672 193.12563827 61.71679482 194.56211674 64 196 C65.52436903 196.95371752 67.04908533 197.90688031 68.57421875 198.859375 C69.5636145 199.4776416 69.5636145 199.4776416 70.57299805 200.10839844 C71.04390869 200.40262695 71.51481934 200.69685547 72 201 C69.6297621 192.61338182 66.72425085 184.436442 63.75 176.25 C63.48011261 175.50457947 63.21022522 174.75915894 62.93215942 173.9911499 C54.08817485 149.5726565 44.98689822 125.24740296 35.93798828 100.90429688 C14.10806852 42.17806723 14.10806852 42.17806723 6.10821533 20.17144775 C5.54332626 18.61875607 4.97691926 17.06661566 4.40887451 15.51507568 C3.64798982 13.43493232 2.89330877 11.3526535 2.140625 9.26953125 C1.72329102 8.12073486 1.30595703 6.97193848 0.87597656 5.78833008 C0 3 0 3 0 0 Z M522.375 223.5 C521.74335937 223.9640625 521.11171875 224.428125 520.4609375 224.90625 C519.97882812 225.2671875 519.49671875 225.628125 519 226 C519.33 227.32 519.66 228.64 520 230 C524.66154042 228.50164772 525.86610751 225.11536409 528 221 C525.37548383 221 524.4644652 221.952248 522.375 223.5 Z " fill="#E56F2E" transform="translate(3,0)"/>
<path d="M0 0 C10.43379918 6.55402924 20.71206737 13.34542737 31 20.125 C31.95962646 20.75704346 32.91925293 21.38908691 33.90795898 22.0402832 C49.056718 32.02262313 64.12289406 42.12160964 79.14630127 52.29135132 C94.91573778 62.96266726 110.78190924 73.48132006 126.69726562 83.93359375 C127.55106812 84.49436615 128.40487061 85.05513855 129.2845459 85.63290405 C130.97426857 86.74267132 132.66412679 87.85223223 134.35412598 88.96157837 C141.51927406 93.67049395 148.65252664 98.4266462 155.77011108 103.20713806 C167.75277451 111.22987349 180.15625842 118.56395284 192.60839844 125.82910156 C195.45596297 127.4912171 198.25565608 129.17043739 201 131 C204.56089001 130.66331328 207.00646289 129.57600095 210 127.6875 C214.65541119 124.99428691 219.34981405 123.58910105 224.5 122.11328125 C229.57290831 120.49968876 234.34783348 118.35203034 239.19921875 116.171875 C242 115 242 115 244 115 C238.15425883 102.76679372 232.30220756 90.53662636 226.4375 78.3125 C225.92541992 77.24459229 225.41333984 76.17668457 224.88574219 75.07641602 C224.4065332 74.07795654 223.92732422 73.07949707 223.43359375 72.05078125 C222.80022095 70.73074097 222.80022095 70.73074097 222.15405273 69.3840332 C221.41353247 67.85427218 220.64679297 66.33677315 219.84790039 64.83666992 C219 63 219 63 219 60.5625 C220.4768734 56.77801191 222.64254259 55.19526062 226 53 C229.92365958 53.27209414 231.92946849 54.42352882 234.70703125 57.1328125 C235.37669922 57.77476563 236.04636719 58.41671875 236.73632812 59.078125 C237.42146484 59.75359375 238.10660156 60.4290625 238.8125 61.125 C240.17187633 62.44144866 241.53255226 63.75655669 242.89453125 65.0703125 C243.57080566 65.72410889 244.24708008 66.37790527 244.94384766 67.05151367 C250.08533056 71.92377383 255.50453858 76.47243759 261 80.9375 C261.94875 81.70964844 262.8975 82.48179688 263.875 83.27734375 C264.57625 83.84582031 265.2775 84.41429688 266 85 C266.11698741 78.86466036 265.94756167 72.8083786 265.5 66.6875 C264.76394816 56.46877347 264.90797521 46.23882011 265 36 C266.24663331 35.49166409 267.49749387 34.99368855 268.75 34.5 C269.44609375 34.2215625 270.1421875 33.943125 270.859375 33.65625 C273 33 273 33 277 33 C287.89 55.275 287.89 55.275 299 78 C300.82133553 75.26799671 301.8315622 73.03867998 302.953125 69.984375 C303.32244141 68.98680176 303.69175781 67.98922852 304.07226562 66.96142578 C304.46091797 65.90165527 304.84957031 64.84188477 305.25 63.75 C314.20026027 39.59947947 314.20026027 39.59947947 317 34 C322.94 34.495 322.94 34.495 329 35 C330.07731674 39.30926694 330.31073156 43.41369962 330.5 47.82421875 C330.54060547 48.68505569 330.58121094 49.54589264 330.62304688 50.43281555 C330.75251062 53.18421586 330.87672917 55.93581577 331 58.6875 C331.1236602 61.42130827 331.248567 64.15503549 331.37695312 66.8886261 C331.45662475 68.5870524 331.53362178 70.28560715 331.60742188 71.98429871 C331.64416016 72.77153824 331.68089844 73.55877777 331.71875 74.36987305 C331.74904297 75.04841843 331.77933594 75.72696381 331.81054688 76.42607117 C332.09523736 80.29390417 332.57171384 84.14542456 333 88 C344.22 76.78 355.44 65.56 367 54 C374.21311475 56.8852459 374.21311475 56.8852459 377 60 C376.73279301 66.50459454 374.75480954 72.04687013 372.4375 78.08203125 C372.0861499 79.01802658 371.7347998 79.95402191 371.37280273 80.91838074 C370.25672035 83.88625087 369.12866427 86.84939486 368 89.8125 C367.24137176 91.82195785 366.48355105 93.83172076 365.7265625 95.84179688 C364.06560896 100.25097288 362.39683183 104.65710098 360.72094727 109.06062317 C360.11342357 110.69488609 359.55135291 112.34594127 359 114 C360.16144531 114.35964844 361.32289063 114.71929687 362.51953125 115.08984375 C369.73765147 117.49588382 376.69270148 120.58267504 383.6875 123.5625 C385.77583726 124.45066566 387.86460147 125.33777075 389.95454407 126.22215271 C391.84274268 127.02133985 393.72940215 127.82416059 395.6159668 128.62719727 C402.67296907 131.8237997 402.67296907 131.8237997 410 131 C412.3314653 129.22693503 414.46458395 127.45989125 416.625 125.5 C417.87669057 124.39479778 419.12930371 123.29063959 420.3828125 122.1875 C420.99801758 121.64222656 421.61322266 121.09695312 422.24707031 120.53515625 C424.61532839 118.46111631 427.05048715 116.47705488 429.5 114.5 C434.29308766 110.60649477 438.9878177 106.60961222 443.66796875 102.58203125 C448.12497577 98.74648055 452.60657473 94.94149308 457.10058594 91.14941406 C461.12821793 87.74705423 465.12882616 84.31421392 469.125 80.875 C473.2868418 77.29373398 477.48269169 73.7684187 481.75 70.3125 C486.12507747 66.76254679 490.30549192 63.04436179 494.46875 59.25 C497.97799486 56.13067124 501.63162123 53.20250867 505.28125 50.25 C507.92147729 48.06498431 510.4672972 45.80828609 513 43.5 C517.29991791 39.58108748 521.75919547 35.90829131 526.28125 32.25 C528.92147729 30.06498431 531.4672972 27.80828609 534 25.5 C538.21540458 21.66239111 542.55718778 18.03601143 547.015625 14.484375 C549.24267522 12.63044314 551.33144033 10.76263242 553.421875 8.765625 C563.58033489 -0.77620051 563.58033489 -0.77620051 570.375 -0.75 C573.0859375 -0.421875 573.0859375 -0.421875 575 0 C574.41394328 8.3271513 572.24109004 16.10678406 570.00390625 24.109375 C569.58255561 25.6359172 569.161786 27.16261988 568.74154663 28.68946838 C567.59644777 32.84277175 566.4425971 36.99359833 565.2870903 41.14401627 C564.31429862 44.64265447 563.34680973 48.1427494 562.37939167 51.64287663 C553.46195662 83.90463688 544.44194368 116.13838891 535.39795685 148.36487675 C534.31958026 152.20787917 533.24224448 156.05117304 532.16496658 159.89448357 C531.43397961 162.50049743 530.7013324 165.10604031 529.96859741 167.71156311 C528.85573236 171.67415846 527.7547457 175.63989297 526.66172409 179.60800552 C526.20556604 181.25692166 525.74546079 182.90474921 525.28212357 184.55166245 C524.56564032 187.10236979 523.86274856 189.65650432 523.16235352 192.21166992 C522.94464515 192.97622403 522.72693678 193.74077814 522.50263119 194.52850056 C521.15919349 199.49916763 520.79831719 203.85040508 521 209 C521.59949463 208.62713867 522.19898926 208.25427734 522.81665039 207.87011719 C525.56446138 206.16211159 528.31346987 204.45604262 531.0625 202.75 C532.00544922 202.16347656 532.94839844 201.57695312 533.91992188 200.97265625 C548.00515293 192.23686835 548.00515293 192.23686835 551.625 191.375 C555.50153542 192.3951409 556.89607329 194.72034953 559 198 C558.74581845 202.37918507 556.81812509 205.114346 554.3125 208.625 C553.73604736 209.43904297 553.73604736 209.43904297 553.14794922 210.26953125 C548.78119854 216.39616867 544.28639491 222.43427504 539.78637695 228.46337891 C538.9214563 229.62619385 538.9214563 229.62619385 538.0390625 230.8125 C537.52553223 231.49957031 537.01200195 232.18664062 536.48291016 232.89453125 C534.86176843 235.19626425 533.42170144 237.57097302 532 240 C532.56518845 239.91230347 533.13037689 239.82460693 533.71269226 239.73425293 C539.60065803 238.8214118 545.48941704 237.91382741 551.37866211 237.00927734 C553.57580978 236.67110498 555.77275238 236.33159738 557.96948242 235.99072266 C561.12886304 235.50070794 564.28895247 235.01551561 567.44921875 234.53125 C568.42960617 234.37813354 569.40999359 234.22501709 570.42008972 234.06726074 C571.34066666 233.92711548 572.26124359 233.78697021 573.2097168 233.64257812 C574.4188398 233.45604675 574.4188398 233.45604675 575.65238953 233.26574707 C578.1208633 232.9863184 580.51789101 232.95470145 583 233 C583.70180531 234.4096347 584.38593958 235.82807641 585.0625 237.25 C585.44535156 238.03890625 585.82820312 238.8278125 586.22265625 239.640625 C587.13603166 242.41288003 587.11486231 243.32673823 586 246 C583.86132813 247.67236328 583.86132813 247.67236328 581.03125 249.3203125 C579.99218506 249.93382568 578.95312012 250.54733887 577.88256836 251.17944336 C576.7663208 251.82147705 575.65007324 252.46351074 574.5 253.125 C573.37408447 253.7857251 572.24816895 254.4464502 571.08813477 255.12719727 C568.80942598 256.46300326 566.52761187 257.79352653 564.24267578 259.11865234 C560.53850546 261.26775161 556.85053358 263.44330091 553.1640625 265.62255859 C550.11436702 267.42361779 547.05766329 269.2125077 544 271 C552.80379165 273.35273742 561.61489513 275.66595482 570.4609375 277.85546875 C571.7284082 278.1692749 572.99587891 278.48308105 574.30175781 278.80639648 C576.83940615 279.43270624 579.37781469 280.05594425 581.91699219 280.67602539 C583.08133789 280.96340576 584.24568359 281.25078613 585.4453125 281.546875 C586.49219238 281.80307617 587.53907227 282.05927734 588.61767578 282.32324219 C591 283 591 283 592 284 C592.12494616 285.62139437 592.17571624 287.24884122 592.1875 288.875 C592.20876953 290.20144531 592.20876953 290.20144531 592.23046875 291.5546875 C592 294 592 294 590 297 C588.03334045 297.61978149 588.03334045 297.61978149 585.59790039 297.96728516 C584.68677994 298.10397614 583.77565948 298.24066711 582.83692932 298.38150024 C581.85046921 298.51599579 580.86400909 298.65049133 579.84765625 298.7890625 C578.33104652 299.0121962 578.33104652 299.0121962 576.78379822 299.23983765 C573.54502522 299.71397506 570.30401885 300.17004999 567.0625 300.625 C563.82516442 301.09066553 560.58839083 301.55999429 557.35191345 302.03158569 C555.33589334 302.32410386 553.31926945 302.61249601 551.30201721 302.89639282 C550.3877446 303.02677948 549.47347198 303.15716614 548.53149414 303.29150391 C547.72700333 303.40458893 546.92251251 303.51767395 546.09364319 303.63418579 C543.81686841 303.97869806 543.81686841 303.97869806 541 305 C549.59857877 311.77379999 558.2207193 318.51634263 566.86865234 325.22705078 C570.60082758 328.12506288 574.32075483 331.03474696 578 334 C577.54738642 335.43931117 577.08767021 336.87638999 576.625 338.3125 C576.24214844 339.51326172 576.24214844 339.51326172 575.8515625 340.73828125 C575 343 575 343 573 346 C567.16039574 345.30091694 561.59733684 343.97661551 555.91015625 342.49609375 C554.96563095 342.2533522 554.02110565 342.01061066 553.04795837 341.76051331 C550.05189069 340.98967592 547.05719028 340.21366942 544.0625 339.4375 C542.02287477 338.91176664 539.9831621 338.3863724 537.94335938 337.86132812 C532.96121894 336.57814156 527.98029761 335.29031958 523 334 C526.76801893 341.56324595 530.53663433 349.12476904 534.40625 356.63671875 C534.921875 357.64541016 535.4375 358.65410156 535.96875 359.69335938 C537.01348792 361.73619513 538.06591268 363.77511344 539.125 365.81054688 C539.6303125 366.80505859 540.135625 367.79957031 540.65625 368.82421875 C541.10806641 369.70166748 541.55988281 370.57911621 542.02539062 371.4831543 C543.09686209 374.2501381 543.3927415 376.06206185 543 379 C540.43087375 381.6886205 538.45506785 383.67241928 534.76171875 384.50390625 C530.4130287 383.71043947 527.78104947 380.9679716 524.5 378.125 C523.07281171 376.92565733 521.6444098 375.72775748 520.21484375 374.53125 C519.50569824 373.933125 518.79655273 373.335 518.06591797 372.71875 C515.12574849 370.27266242 512.1071553 367.93890117 509.0625 365.625 C504.01579477 361.78053814 499.00913095 357.89599074 494 354 C494 370.5 494 387 494 404 C485.82608696 406.72463768 485.82608696 406.72463768 483 406 C477.98848019 398.71601518 474.18478684 390.74683423 470.19726562 382.87304688 C469.68486328 381.87466797 469.17246094 380.87628906 468.64453125 379.84765625 C467.95387573 378.4865271 467.95387573 378.4865271 467.24926758 377.09790039 C466.17330874 374.86178807 466.17330874 374.86178807 464 374 C463.58488159 375.08498779 463.58488159 375.08498779 463.16137695 376.19189453 C462.05051142 378.87786791 460.80229571 381.37548938 459.41796875 383.9296875 C458.90500244 384.87763184 458.39203613 385.82557617 457.86352539 386.80224609 C457.31043701 387.81625488 456.75734863 388.83026367 456.1875 389.875 C455.6092749 390.93928223 455.0310498 392.00356445 454.43530273 393.10009766 C450.02635557 401.18704911 445.50541747 409.20653736 440.94799805 417.21044922 C436.24125998 425.50552044 431.72851001 433.89839787 427.23071289 442.30810547 C423.41316391 449.42693243 419.50024806 456.48237328 415.5 463.5 C410.1924584 472.81271348 405.07771809 482.2189342 400.01513672 491.66674805 C396.75980981 497.73909761 393.48234331 503.79593099 390.125 509.8125 C389.73884521 510.50480713 389.35269043 511.19711426 388.95483398 511.91040039 C388.11777737 513.41053846 387.28061363 514.91061676 386.44335938 516.41064453 C384.09441802 520.62459447 381.75185583 524.84203925 379.41772461 529.06420898 C378.0560515 531.52643653 376.68328703 533.98201407 375.30297852 536.43383789 C372.00329986 542.32759717 368.8342985 548.22978699 366.00054932 554.36395264 C364.70277233 557.16737842 363.35893799 559.94772393 362.01373291 562.7286377 C361.38657622 564.06134062 360.78324051 565.40555234 360.20599365 566.76062012 C358.3585665 571.08878545 356.44479337 574.68326213 353 578 C348.3002041 579.48147737 343.8238591 579.22370707 338.96621704 579.03771973 C334.85032665 578.98538025 330.7704116 579.2659529 326.66436481 579.53026199 C320.94992124 579.89142059 315.23821225 580.11173152 309.5148344 580.27350998 C305.77694762 580.38323258 302.05168553 580.53663758 298.32055664 580.79003906 C274.22251304 582.38243954 274.22251304 582.38243954 267.34661865 576.87451172 C262.76355182 571.44506836 259.8837322 565.3227157 257.1890564 558.79174805 C255.65820744 555.19751603 253.76393549 552.14095025 251.625 548.875 C251.02042969 547.89466797 250.41585937 546.91433594 249.79296875 545.90429688 C249.20128906 544.94587891 248.60960937 543.98746094 248 543 C242.39884064 533.9130706 236.83120268 524.80661446 231.2890625 515.68359375 C226.88502264 508.43984493 222.44776632 501.21696949 218 494 C212.39952847 484.91264485 206.83120519 475.80661859 201.2890625 466.68359375 C196.88502264 459.43984493 192.44776632 452.21696949 188 445 C182.97587846 436.84783344 177.97200746 428.68405622 173 420.5 C166.0585599 409.07931795 159.07180872 397.68708714 152.04638672 386.31787109 C150.28897221 383.46851972 148.53800571 380.61539757 146.78996277 377.76029968 C145.07405084 374.96166099 143.34870833 372.1688413 141.625 369.375 C140.98828369 368.33093994 140.35156738 367.28687988 139.69555664 366.21118164 C139.10766357 365.26235107 138.51977051 364.31352051 137.9140625 363.3359375 C137.3979541 362.49595215 136.8818457 361.6559668 136.35009766 360.79052734 C135.90456543 360.19965332 135.4590332 359.6087793 135 359 C134.34 359 133.68 359 133 359 C132.71914551 359.57218262 132.43829102 360.14436523 132.14892578 360.73388672 C125.77175426 373.6926097 119.14418052 386.4473184 112 399 C106.84374012 399.2062504 104.09792156 398.69930719 99 397 C99.33 380.83 99.66 364.66 100 348 C90.4619002 355.13499624 90.4619002 355.13499624 81.0625 362.4375 C79.88939496 363.35816472 78.71621594 364.27873519 77.54296875 365.19921875 C75.13146471 367.09678476 72.74264454 369.01935768 70.36328125 370.95703125 C69.20065447 371.88818772 68.03789898 372.8191835 66.875 373.75 C66.34269775 374.1927124 65.81039551 374.6354248 65.26196289 375.09155273 C61.56145474 378.02639751 61.56145474 378.02639751 58.83984375 377.8984375 C55.61364706 376.32301237 53.45476995 374.62603297 51 372 C51.14828934 366.12511189 53.32191254 361.78020955 56.03515625 356.73046875 C56.63232704 355.58714836 56.63232704 355.58714836 57.24156189 354.42073059 C58.50548317 352.00439546 59.78312899 349.59568528 61.0625 347.1875 C62.34318619 344.76036794 63.62087691 342.33174045 64.89414978 339.90071106 C65.68503707 338.39238682 66.48060922 336.8865081 67.28126526 335.38334656 C69.29683343 331.88307024 69.29683343 331.88307024 70 328 C64.71589019 329.24300537 59.43230093 330.48819251 54.14916992 331.73535156 C52.35406197 332.15879469 50.55881635 332.58165471 48.76342773 333.00390625 C46.17394665 333.6130269 43.58497763 334.22428422 40.99609375 334.8359375 C39.80348183 335.11574966 39.80348183 335.11574966 38.58677673 335.4012146 C35.06605852 336.23494925 31.57564293 337.10505818 28.10571289 338.13134766 C24.73268398 339.07476695 23.19022039 339.46577694 20 338 C17.50590069 335.04666971 15.97630504 332.48093487 16.0390625 328.55859375 C17.36977504 325.01543637 19.76140767 323.42275084 22.75 321.3125 C23.93904879 320.4365327 25.12784374 319.56022075 26.31640625 318.68359375 C26.92758301 318.23999512 27.53875977 317.79639648 28.16845703 317.33935547 C31.04673452 315.23455271 33.86611944 313.0551385 36.6875 310.875 C37.22109131 310.46499756 37.75468262 310.05499512 38.30444336 309.63256836 C43.25710987 305.82229973 48.14002192 301.92747664 53 298 C36.35630245 295.17688032 19.69061727 292.53051294 3 290 C2.01 283.565 2.01 283.565 1 277 C11.61769026 274.13155391 22.26401169 271.40219272 32.9375 268.75 C34.41083531 268.38292495 35.88414273 268.01573791 37.35742188 267.6484375 C40.90462919 266.76434149 44.4522049 265.88173473 48 265 C48 264.34 48 263.68 48 263 C46.19271487 261.65715604 46.19271487 261.65715604 43.8203125 260.34765625 C42.91877441 259.82324951 42.01723633 259.29884277 41.08837891 258.75854492 C39.62150635 257.91900269 39.62150635 257.91900269 38.125 257.0625 C36.1138933 255.8944164 34.10348772 254.72512492 32.09375 253.5546875 C31.07667969 252.96397461 30.05960938 252.37326172 29.01171875 251.76464844 C24.51423462 249.1294494 20.06620254 246.41618573 15.625 243.6875 C14.8530127 243.2138501 14.08102539 242.7402002 13.28564453 242.25219727 C11.52287105 241.16958253 9.76128326 240.08503746 8 239 C8.11458693 237.56163249 8.24209116 236.12429034 8.375 234.6875 C8.47941406 233.48673828 8.47941406 233.48673828 8.5859375 232.26171875 C9 230 9 230 11 227 C17.11208148 225.85497974 23.98757561 227.3978487 30.06640625 228.3125 C30.98590561 228.44567627 31.90540497 228.57885254 32.85276794 228.71606445 C35.75692066 229.13807538 38.65968676 229.56888196 41.5625 230 C43.54483647 230.28964759 45.52725771 230.57871567 47.50976562 230.8671875 C52.34084915 231.57143204 57.17071037 232.28356169 62 233 C54.58435713 222.67750028 47.11427661 212.40576941 39.4609375 202.2578125 C39.03256592 201.68788574 38.60419434 201.11795898 38.1628418 200.53076172 C37.18288414 199.24074818 36.17814498 197.9696146 35.16796875 196.703125 C34 195 34 195 33.9375 192.625 C35.3992856 189.01352969 37.60121445 186.00017026 41 184 C44.56388066 184.43887057 47.11789273 185.43354942 50.14453125 187.328125 C50.90443359 187.79863281 51.66433594 188.26914063 52.44726562 188.75390625 C53.22779297 189.24761719 54.00832031 189.74132812 54.8125 190.25 C55.58142578 190.72824219 56.35035156 191.20648438 57.14257812 191.69921875 C59.4329672 193.12563827 61.71679482 194.56211674 64 196 C65.52436903 196.95371752 67.04908533 197.90688031 68.57421875 198.859375 C69.5636145 199.4776416 69.5636145 199.4776416 70.57299805 200.10839844 C71.04390869 200.40262695 71.51481934 200.69685547 72 201 C69.6297621 192.61338182 66.72425085 184.436442 63.75 176.25 C63.48011261 175.50457947 63.21022522 174.75915894 62.93215942 173.9911499 C54.08817485 149.5726565 44.98689822 125.24740296 35.93798828 100.90429688 C14.10806852 42.17806723 14.10806852 42.17806723 6.10821533 20.17144775 C5.54332626 18.61875607 4.97691926 17.06661566 4.40887451 15.51507568 C3.64798982 13.43493232 2.89330877 11.3526535 2.140625 9.26953125 C1.72329102 8.12073486 1.30595703 6.97193848 0.87597656 5.78833008 C0 3 0 3 0 0 Z M26 34 C27.91829529 40.60671724 30.03113437 47.10446616 32.37890625 53.5703125 C32.70277817 54.46817978 33.02665009 55.36604706 33.3603363 56.29112244 C34.42446026 59.23694108 35.49315549 62.18107275 36.5625 65.125 C36.93415283 66.15076141 37.30580566 67.17652283 37.6887207 68.23336792 C44.08842458 85.89084703 50.64281137 103.48797766 57.25927734 121.06518555 C64.55966712 140.45976425 71.75782085 159.89121779 78.91552734 179.33886719 C80.33560938 183.19707368 81.7579874 187.05442292 83.18212891 190.91113281 C84.95696111 195.71781651 86.72803528 200.52586827 88.49624634 205.33499146 C89.15890267 207.13563327 89.8227581 208.93583431 90.48788452 210.73556519 C91.40167601 213.20915701 92.31080256 215.68441445 93.21875 218.16015625 C93.48766556 218.88498199 93.75658112 219.60980774 94.03364563 220.3565979 C95.31994047 223.87931953 96.39864536 227.29419706 97 231 C86.54717136 225.18982061 76.21976273 219.2111489 66 213 C66 216.39479497 66.39186604 216.86362798 68.421875 219.4140625 C68.9475708 220.0851001 69.4732666 220.7561377 70.01489258 221.44750977 C70.87377075 222.52536743 70.87377075 222.52536743 71.75 223.625 C76.60242337 229.82895311 81.29362196 236.11108049 85.8125 242.5625 C86.33360352 243.3064502 86.85470703 244.05040039 87.39160156 244.81689453 C88.59715542 246.54267553 89.7990253 248.27102922 91 250 C81.9100797 249.43471114 72.99354502 248.35621418 64 246.9375 C61.64636236 246.56822678 59.29221106 246.20220909 56.9375 245.83984375 C55.91527344 245.67863037 54.89304687 245.51741699 53.83984375 245.35131836 C51.18981131 245.02348164 48.66640663 244.93425718 46 245 C48.98188678 248.19487869 51.50877106 250.52449572 55.8828125 251.359375 C58.45541047 252.13779948 59.83392561 253.31924775 61.875 255.0625 C66.90674722 259.12144276 72.32472004 262.1817171 77.9609375 265.30078125 C81 267 81 267 84 269 C77.85313959 271.4861276 71.79004576 273.0624381 65.3125 274.4375 C57.05519125 276.2453826 49.01506754 278.29302436 41 281 C44.35674314 283.23782876 46.28595177 283.49318105 50.25 284 C51.49910156 284.165 52.74820313 284.33 54.03515625 284.5 C55.34355469 284.665 56.65195312 284.83 58 285 C66.71414282 286.12554014 75.37434504 287.31432107 84 289 C84 289.66 84 290.32 84 291 C82.73754883 292.26171875 82.73754883 292.26171875 80.95703125 293.6875 C79.97331543 294.48136108 79.97331543 294.48136108 78.96972656 295.29125977 C78.2578418 295.85514404 77.54595703 296.41902832 76.8125 297 C76.0915918 297.5787085 75.37068359 298.15741699 74.62792969 298.75366211 C69.04440692 303.21912808 63.38436926 307.58003684 57.671875 311.87890625 C55.2626889 313.79146188 53.11898495 315.7750658 51 318 C58.96215667 316.65283241 66.78456849 314.92672404 74.625 313 C81.73670503 311.26501882 88.84752215 309.5594501 96 308 C89.33333333 321.33333333 82.66666667 334.66666667 76 348 C79.57956532 346.28203695 82.48713617 344.19866893 85.625 341.75 C86.44750244 341.11094727 86.44750244 341.11094727 87.28662109 340.45898438 C89.19375881 338.97606289 91.09687267 337.48806432 93 336 C95.39818346 334.12957867 97.79714504 332.26016377 100.19677734 330.39160156 C101.79712551 329.14491972 103.39643541 327.89690378 104.99462891 326.64746094 C105.73116699 326.07286133 106.46770508 325.49826172 107.2265625 324.90625 C107.88221191 324.39384766 108.53786133 323.88144531 109.21337891 323.35351562 C110.76623262 322.17709844 112.37903617 321.08064255 114 320 C113.67 335.51 113.34 351.02 113 367 C115.74567529 363.33909962 117.76020461 359.72088866 119.7578125 355.64453125 C120.1063327 354.94228928 120.45485291 354.2400473 120.81393433 353.51652527 C121.92146044 351.28372592 123.0235736 349.04831378 124.125 346.8125 C125.2342799 344.5663402 126.34472015 342.32077318 127.45748901 340.07633972 C128.14859447 338.68184967 128.83755888 337.28629612 129.52420044 335.88960266 C131.88829012 331.11170988 131.88829012 331.11170988 133 330 C133.48859497 330.83470825 133.48859497 330.83470825 133.98706055 331.6862793 C140.47975374 342.7633824 147.05188549 353.78009138 153.84057617 364.6784668 C158.4493714 372.08553247 162.98138059 379.53778124 167.5 387 C172.46115034 395.19103446 177.44406749 403.36695949 182.5 411.5 C187.49126719 419.53011194 192.41327328 427.60101844 197.3125 435.6875 C204.82543042 448.08645914 212.40573163 460.44279089 220.01611328 472.78222656 C223.34770575 478.18591702 226.67350212 483.59317246 230 489 C231.32551184 491.15365137 232.65103268 493.3072972 233.9765625 495.4609375 C236.01740238 498.77717755 238.05783286 502.09366711 240.09667969 505.41113281 C240.4455423 505.9787735 240.79440491 506.54641418 241.15383911 507.1312561 C241.85667062 508.27503379 242.55936911 509.41889322 243.26193237 510.56283569 C244.97012118 513.34334951 246.68224501 516.12131886 248.39990234 518.89599609 C251.32878742 523.62906855 254.23253447 528.36699136 257.015625 533.1875 C257.46373535 533.94853027 257.9118457 534.70956055 258.37353516 535.49365234 C259.17793999 536.86362 259.96563517 538.2436127 260.73193359 539.63525391 C261.85464172 541.63939611 261.85464172 541.63939611 264 544 C268.15825411 544.71864286 271.1674646 543.78638586 275 542.1875 C298.7106468 533.0655322 327.03288051 532.92760053 350.29296875 543.109375 C353.28051653 544.09229115 354.16160743 544.22683226 357 543 C358.73834784 540.74137619 358.73834784 540.74137619 360.21484375 537.83984375 C361.1107019 536.20196899 361.1107019 536.20196899 362.0246582 534.53100586 C362.66251541 533.3333001 363.30012319 532.13546148 363.9375 530.9375 C364.60320918 529.70971555 365.27013507 528.48259008 365.93823242 527.25610352 C367.64521307 524.115582 369.33703049 520.96716414 371.02502441 517.81640625 C372.51559323 515.03943568 374.01957036 512.26978603 375.5234375 509.5 C377.69386469 505.50140897 379.85864341 501.49984695 382.01953125 497.49609375 C385.03368121 491.92285062 388.10841464 486.38498275 391.19921875 480.85400391 C394.62781105 474.70424119 397.97216198 468.51054542 401.3125 462.3125 C405.55414228 454.44554899 409.88246359 446.63729819 414.3125 438.875 C419.73579618 429.36417451 424.90487718 419.73311112 430.02792358 410.05889893 C434.93585117 400.79685603 439.97451061 391.62648561 445.18286133 382.52880859 C448.14553886 377.33637267 451.03471004 372.11097531 453.84765625 366.8359375 C454.32993683 365.93258667 454.32993683 365.93258667 454.82196045 365.01098633 C456.39263629 362.06541126 457.95507102 359.11597645 459.50830078 356.16113281 C460.06630371 355.11022461 460.62430664 354.05931641 461.19921875 352.9765625 C461.69252686 352.03893066 462.18583496 351.10129883 462.6940918 350.13525391 C464 348 464 348 466 347 C466.38333496 347.7520874 466.76666992 348.5041748 467.16162109 349.27905273 C468.58452406 352.0638648 470.01262702 354.84592701 471.44433594 357.6262207 C472.06330392 358.8308701 472.68017785 360.03659782 473.29492188 361.2434082 C474.1780967 362.97628267 475.06940215 364.70500577 475.9609375 366.43359375 C476.49509277 367.47572021 477.02924805 368.51784668 477.57958984 369.59155273 C478.77250098 372.11260047 478.77250098 372.11260047 481 373 C481 357.82 481 342.64 481 327 C486.28 331.29 491.56 335.58 497 340 C505.9303987 347.09026494 505.9303987 347.09026494 515 354 C515.66 353.67 516.32 353.34 517 353 C516.55011719 352.10023438 516.10023438 351.20046875 515.63671875 350.2734375 C509.7578125 338.515625 503.87890625 326.7578125 498 315 C508.30352695 316.49962459 518.23138161 319.01349395 528.28125 321.69726562 C529.4775 322.00728516 530.67375 322.31730469 531.90625 322.63671875 C532.98197266 322.92248779 534.05769531 323.20825684 535.16601562 323.50268555 C537.91141801 323.98445542 539.41286971 323.93506503 542 323 C533.17991929 315.72812495 524.30788147 308.58936537 515.0546875 301.87207031 C512.13803367 299.73052316 510.02638353 298.03957529 508 295 C510.16666667 294.72916667 512.33333333 294.45833333 514.5 294.1875 C515.19399902 294.10056885 515.88799805 294.0136377 516.60302734 293.92407227 C521.13331187 293.35693184 525.66409197 292.79399118 530.1953125 292.234375 C531.78956055 292.03678589 531.78956055 292.03678589 533.41601562 291.83520508 C535.52657002 291.57363378 537.6372442 291.31302688 539.74804688 291.0534668 C544.51778961 290.46115858 549.26727282 289.84801426 554 289 C550.67903179 286.7860212 548.18893414 286.17353917 544.3125 285.25 C542.89182286 284.90668098 541.47125757 284.56289894 540.05078125 284.21875 C539.2613916 284.02925781 538.47200195 283.83976563 537.65869141 283.64453125 C532.43146917 282.37732586 527.21698315 281.05859102 522 279.75 C519.89587946 279.22377386 517.79171642 278.69771762 515.6875 278.171875 C514.125 277.78125 512.5625 277.390625 511 277 C511 276.34 511 275.68 511 275 C512.99682617 273.61474609 512.99682617 273.61474609 515.79296875 272.0234375 C517.31954102 271.14594849 517.31954102 271.14594849 518.87695312 270.25073242 C520.51567383 269.32224487 520.51567383 269.32224487 522.1875 268.375 C524.38992711 267.10912354 526.5917545 265.84220307 528.79296875 264.57421875 C530.39470947 263.65455322 530.39470947 263.65455322 532.02880859 262.71630859 C535.71526651 260.58682633 539.37114085 258.41351285 543 256.1875 C543.99 255.58292969 544.98 254.97835937 546 254.35546875 C546.66 253.90816406 547.32 253.46085938 548 253 C548 252.67 548 252.34 548 252 C545.52008842 252.11562778 543.04151241 252.24231423 540.5625 252.375 C539.53092773 252.42140625 539.53092773 252.42140625 538.47851562 252.46875 C533.971439 252.72030776 529.78628716 253.43119291 525.39868164 254.47412109 C520.95361762 255.448642 516.44387983 256.01035112 511.9375 256.625 C510.49600586 256.82609375 510.49600586 256.82609375 509.02539062 257.03125 C506.68402313 257.35741065 504.34225236 257.68026702 502 258 C502.3609375 257.51789063 502.721875 257.03578125 503.09375 256.5390625 C503.5578125 255.90742188 504.021875 255.27578125 504.5 254.625 C504.9640625 253.99851563 505.428125 253.37203125 505.90625 252.7265625 C507.17838101 251.05905387 507.17838101 251.05905387 507 249 C498.82525526 249.51258319 490.92194341 250.83390332 482.90209961 252.47412109 C480.93820025 252.87485711 478.97228151 253.2641987 477.00585938 253.65234375 C473.32715762 254.39442348 469.66340739 255.18614104 466 256 C465.03852051 256.19239258 464.07704102 256.38478516 463.08642578 256.58300781 C450.42857612 259.58413155 444.53685975 273.48706311 437.9375 283.6875 C436.91387538 285.25957585 435.88953828 286.831188 434.86450195 288.40234375 C433.33565161 290.74586221 431.80718856 293.08961942 430.28105164 295.43490601 C426.12620616 301.81899402 421.9229021 308.16900108 417.6875 314.5 C417.12603271 315.34006592 416.56456543 316.18013184 415.98608398 317.0456543 C415.04034043 318.45983762 414.0941504 319.87372263 413.1472168 321.28710938 C412.09601168 322.85664653 411.04785188 324.42822218 410 326 C407.55014558 326.14451835 405.41210957 326.08638468 402.984375 325.87109375 C402.24370789 325.81594101 401.50304077 325.76078827 400.7399292 325.70396423 C390.67762983 324.8992071 380.64919737 323.68645063 370.62988281 322.47094727 C367.21519302 322.0582937 363.79913376 321.65866134 360.3828125 321.25976562 C358.19782352 320.99817272 356.01292405 320.73583078 353.828125 320.47265625 C352.81357239 320.3548732 351.79901978 320.23709015 350.75372314 320.11573792 C349.80793396 319.99899216 348.86214478 319.8822464 347.88769531 319.76196289 C346.64889618 319.613265 346.64889618 319.613265 345.3850708 319.46156311 C342.66820418 318.93579029 340.46022448 318.28038467 338 317 C336.81390381 315.1746521 336.81390381 315.1746521 336.01464844 312.93115234 C335.70343048 312.08705307 335.39221252 311.2429538 335.07156372 310.37327576 C334.75404144 309.45345413 334.43651917 308.53363251 334.109375 307.5859375 C333.76309052 306.6315126 333.41680603 305.67708771 333.06002808 304.69374084 C331.93938754 301.59340882 330.84488998 298.48450784 329.75 295.375 C328.98943915 293.25978805 328.22690624 291.14528415 327.46240234 289.03149414 C325.9666192 284.88975534 324.47947687 280.74510732 323.00097656 276.59716797 C320.59609838 269.85679659 318.1297857 263.14135657 315.625 256.4375 C315.28694336 255.51437012 314.94888672 254.59124023 314.60058594 253.64013672 C311.6354253 245.66450391 308.75145649 241.38817599 301.6875 236.625 C300.9454834 236.11316162 300.2034668 235.60132324 299.43896484 235.07397461 C296.96615427 233.37242241 294.48349274 231.68591583 292 230 C290.21704639 228.78053477 288.43450285 227.5604698 286.65234375 226.33984375 C282.93662123 223.79827237 279.21624803 221.2637122 275.4921875 218.734375 C271.18893439 215.81123987 266.89564859 212.87398483 262.60668945 209.92993164 C254.82868107 204.59176676 247.00833843 199.32324275 239.14892578 194.10571289 C234.50176359 191.01605917 229.90653134 187.86510466 225.3515625 184.640625 C222.59520625 182.71758575 219.80076853 180.85772495 217 179 C212.63721821 176.10434837 208.32934914 173.14701224 204.05078125 170.12890625 C198.92881781 166.55468081 193.76216755 163.04541528 188.59936523 159.53051758 C187.80602783 158.98935303 187.01269043 158.44818848 186.1953125 157.890625 C185.48391113 157.40625977 184.77250977 156.92189453 184.03955078 156.42285156 C183.36649902 155.95331055 182.69344727 155.48376953 182 155 C180.89954346 154.2891626 180.89954346 154.2891626 179.77685547 153.56396484 C177.23638018 151.32787187 177.44902046 149.03020128 177.1953125 145.79370117 C176.75644019 140.35881624 176.28201289 135.60022681 172.8125 131.26953125 C170.26177205 129.38128403 167.67507168 127.70712335 164.91943359 126.13427734 C162.05796323 124.44330923 159.36605053 122.52704541 156.64257812 120.62426758 C154.20843115 118.92745494 151.75737981 117.25787468 149.30078125 115.59375 C145.7735295 113.20345669 142.24989109 110.80805721 138.73046875 108.40625 C106.87114823 86.67778706 74.87210916 65.15152915 42.74349976 43.82337952 C39.81776582 41.88069725 36.89885891 39.93104315 33.99707031 37.95263672 C33.18592773 37.39979004 32.37478516 36.84694336 31.5390625 36.27734375 C30.88373535 35.82480225 30.2284082 35.37226074 29.55322266 34.90600586 C28.01176226 33.83204862 28.01176226 33.83204862 26 34 Z M522.375 223.5 C521.74335937 223.9640625 521.11171875 224.428125 520.4609375 224.90625 C519.97882812 225.2671875 519.49671875 225.628125 519 226 C519.33 227.32 519.66 228.64 520 230 C524.66154042 228.50164772 525.86610751 225.11536409 528 221 C525.37548383 221 524.4644652 221.952248 522.375 223.5 Z " fill="#010000" transform="translate(3,0)"/>
<path d="M0 0 C1.14885278 3.44655834 0.80682193 4.62872037 -0.07421875 8.0859375 C-0.33009766 9.10042969 -0.58597656 10.11492188 -0.84960938 11.16015625 C-1.26436523 12.75150391 -1.26436523 12.75150391 -1.6875 14.375 C-1.94466797 15.39722656 -2.20183594 16.41945313 -2.46679688 17.47265625 C-3.83828656 22.84404339 -5.33260684 28.15450939 -6.98828125 33.4453125 C-9.05996418 40.07489645 -10.80298956 46.7662006 -12.5 53.5 C-14.48768946 61.38722437 -16.62755446 69.1825137 -19.05810547 76.9453125 C-20.41697991 81.35232055 -21.62131939 85.79529921 -22.8125 90.25 C-25.83992842 101.45625045 -28.96453428 112.63392037 -32.10449219 123.80908203 C-33.00173274 127.0061742 -33.89591787 130.20410509 -34.7890625 133.40234375 C-38.47970432 146.61500334 -42.21477922 159.814121 -46 173 C-48.97788016 173.50893577 -51.9569254 174.00730636 -54.9375 174.5 C-55.76830078 174.64308594 -56.59910156 174.78617188 -57.45507812 174.93359375 C-63.04603373 175.84729077 -68.33493578 176.13719631 -74 176 C-74.71511576 172.68567094 -75.18618712 169.46656748 -75.4296875 166.0859375 C-76.33763112 147.8987638 -76.33763112 147.8987638 -84.20703125 131.94921875 C-85 130 -85 130 -84.46875 127.22265625 C-82.66858867 123.27283419 -80.35821554 120.14990517 -77.6875 116.75 C-76.59353128 115.32538529 -75.50113875 113.89955913 -74.41015625 112.47265625 C-73.84570801 111.7367627 -73.28125977 111.00086914 -72.69970703 110.24267578 C-69.94254917 106.60474816 -67.28429403 102.8972538 -64.625 99.1875 C-60.67646449 93.68938868 -56.69369582 88.22002105 -52.66113281 82.78320312 C-44.46139536 71.72767958 -36.61826534 60.46250522 -29 49 C-29.4125 49.38744385 -29.825 49.7748877 -30.25 50.17407227 C-44.16982164 63.23749863 -44.16982164 63.23749863 -50.046875 68.296875 C-52.56612276 70.49365905 -55.03102996 72.74689619 -57.5 75 C-60.61907011 77.84524228 -63.74755391 80.6719958 -66.9375 83.4375 C-70.88745261 86.86836233 -74.731871 90.41130271 -78.58007812 93.95507812 C-81.3345576 96.48725408 -84.10733787 98.99027735 -86.9375 101.4375 C-90.43847961 104.47458169 -93.84837449 107.60277593 -97.25 110.75 C-97.80155762 111.26030762 -98.35311523 111.77061523 -98.92138672 112.29638672 C-100.61458327 113.86390675 -102.30730792 115.43193524 -104 117 C-106.18490402 119.02366578 -108.37256965 121.04427545 -110.5625 123.0625 C-111.51253906 123.94035156 -112.46257812 124.81820312 -113.44140625 125.72265625 C-115.56305377 127.6110845 -117.69463337 129.34556042 -120 131 C-119.49895039 135.4311575 -118.06423223 137.44373112 -115 140.625 C-111.78369506 144.05875952 -108.69992852 147.52194067 -105.75 151.1875 C-101.43291335 156.5266531 -96.95251239 161.70995239 -92.42871094 166.8737793 C-85 175.37710492 -85 175.37710492 -85 178 C-97.77055131 180.37090404 -110.61214515 181.98939262 -123.50561523 183.50976562 C-124.93473894 183.67833564 -126.36385682 183.84695512 -127.79296875 184.015625 C-128.49332748 184.09820557 -129.19368622 184.18078613 -129.91526794 184.26586914 C-137.19155252 185.1301611 -144.45393206 186.10073739 -151.70776367 187.13671875 C-154.13556988 187.46872644 -156.56371475 187.73896023 -159 188 C-160.02250854 188.17257324 -160.02250854 188.17257324 -161.06567383 188.34863281 C-169.35840344 189.20176624 -176.6569454 184.05551228 -183.6875 180.25 C-185.17458638 179.4622152 -186.66246946 178.67593257 -188.15112305 177.89111328 C-192.44745853 175.61860313 -196.7254721 173.31320096 -201 171 C-202.06637695 170.42540039 -203.13275391 169.85080078 -204.23144531 169.25878906 C-208.66953529 166.86341129 -213.0951743 164.4465703 -217.51171875 162.01171875 C-223.85522764 158.51888462 -230.23922817 155.10225897 -236.625 151.6875 C-237.81551122 151.05061877 -239.00602228 150.41373726 -240.1965332 149.77685547 C-242.59862633 148.49203349 -245.00092758 147.20760149 -247.40332031 145.92333984 C-254.4261558 142.1685918 -261.44476107 138.40593487 -268.46337891 134.64331055 C-273.85918382 131.75126529 -279.25625391 128.86174827 -284.65917969 125.98303223 C-287.17022408 124.64489293 -289.68035709 123.30504898 -292.19042969 121.96508789 C-293.93076259 121.036926 -295.67238645 120.11118592 -297.4140625 119.18554688 C-302.91500018 116.24799364 -308.38699034 113.26237901 -313.8125 110.1875 C-314.80894531 109.62417969 -315.80539062 109.06085938 -316.83203125 108.48046875 C-317.54746094 107.99191406 -318.26289063 107.50335938 -319 107 C-319 106.34 -319 105.68 -319 105 C-310.09 101.04 -301.18 97.08 -292 93 C-295.22260698 84.89029891 -295.22260698 84.89029891 -298.796875 76.9921875 C-299.28027344 75.98671875 -299.76367188 74.98125 -300.26171875 73.9453125 C-300.75285156 72.93210937 -301.24398437 71.91890625 -301.75 70.875 C-302.25660156 69.823125 -302.76320313 68.77125 -303.28515625 67.6875 C-304.52050578 65.12356702 -305.75882801 62.56111805 -307 60 C-303.37263248 60 -303.01302908 60.59329751 -300.48828125 63.03515625 C-299.47411133 64.00291992 -299.47411133 64.00291992 -298.43945312 64.99023438 C-297.73755859 65.67408203 -297.03566406 66.35792969 -296.3125 67.0625 C-294.93489421 68.38807158 -293.55598908 69.71229417 -292.17578125 71.03515625 C-291.4895166 71.69314209 -290.80325195 72.35112793 -290.09619141 73.02905273 C-285.00298262 77.8179503 -279.66845845 82.32368899 -274.25 86.73828125 C-273 88 -273 88 -273 90 C-272.34 90 -271.68 90 -271 90 C-271.06058594 89.10394043 -271.12117188 88.20788086 -271.18359375 87.28466797 C-271.41092936 83.88906085 -271.63403709 80.4932262 -271.85449219 77.09716797 C-271.9498632 75.64067983 -272.04681156 74.18429393 -272.14550781 72.72802734 C-272.79457155 63.1311564 -273.1370196 53.62372369 -273 44 C-270.70502035 46.1035213 -269.32493161 48.01557154 -268.00708008 50.82885742 C-267.64693314 51.5894194 -267.28678619 52.34998138 -266.91572571 53.1335907 C-266.34835945 54.35717033 -266.34835945 54.35717033 -265.76953125 55.60546875 C-265.37424728 56.44467361 -264.97896332 57.28387848 -264.57170105 58.14851379 C-263.31254536 60.82536615 -262.06243185 63.50633014 -260.8125 66.1875 C-259.95957719 68.00483563 -259.10606844 69.82189639 -258.25195312 71.63867188 C-256.16116034 76.0892888 -254.07846627 80.54361401 -252 85 C-251.43285278 83.44889526 -251.43285278 83.44889526 -250.85424805 81.86645508 C-249.44485559 78.01607927 -248.02872891 74.16820907 -246.6105957 70.32104492 C-245.99874 68.6583056 -245.3886919 66.99489992 -244.78051758 65.33081055 C-243.90404531 62.9335908 -243.02101618 60.53887372 -242.13671875 58.14453125 C-241.86784348 57.4047554 -241.5989682 56.66497955 -241.32194519 55.90278625 C-239.8729739 52.00041476 -238.29488898 48.5039917 -236 45 C-235.34 45.33 -234.68 45.66 -234 46 C-233.01 66.79 -233.01 66.79 -232 88 C-226.79459831 84.09594873 -222.22980348 80.51658607 -217.75 75.9453125 C-217.20641846 75.39890106 -216.66283691 74.85248962 -216.1027832 74.28952026 C-214.39702633 72.5727226 -212.69842464 70.84904847 -211 69.125 C-209.83250121 67.94745054 -208.66453607 66.77036324 -207.49609375 65.59375 C-204.65865728 62.73446733 -201.82760706 59.8690022 -199 57 C-198.67 57.66 -198.34 58.32 -198 59 C-198.96781431 61.80125134 -200.0022726 64.51122984 -201.125 67.25 C-201.77622411 68.87961587 -202.42594643 70.50983264 -203.07421875 72.140625 C-203.3995459 72.95595703 -203.72487305 73.77128906 -204.06005859 74.61132812 C-205.4141898 78.05258 -206.69117229 81.51846116 -207.9375 85 C-208.33839844 86.11375 -208.73929687 87.2275 -209.15234375 88.375 C-210.1024308 90.85746037 -210.1024308 90.85746037 -210 93 C-199.68747805 97.38371635 -189.351764 101.70983411 -179 106 C-178.24176941 106.31499451 -177.48353882 106.62998901 -176.70233154 106.95452881 C-172.1979243 108.8240727 -167.68624707 110.67394669 -163.16329956 112.49819946 C-161.72827478 113.07982511 -160.29554958 113.66715896 -158.86526489 114.26034546 C-156.85369458 115.09308171 -154.83466163 115.90432498 -152.8125 116.7109375 C-151.66394531 117.17806152 -150.51539063 117.64518555 -149.33203125 118.12646484 C-145.45532157 119.14279451 -142.87979674 118.92894084 -139 118 C-135.97732514 115.84306508 -135.97732514 115.84306508 -133.25 113 C-132.20814688 111.98968832 -131.16382594 110.98191597 -130.1171875 109.9765625 C-129.59737305 109.47286133 -129.07755859 108.96916016 -128.54199219 108.45019531 C-126.25344452 106.29788797 -123.82528729 104.33939462 -121.375 102.375 C-117.81815864 99.51118217 -114.37460948 96.57653672 -111 93.5 C-106.70008209 89.58108748 -102.24080453 85.90829131 -97.71875 82.25 C-95.07852271 80.06498431 -92.5327028 77.80828609 -90 75.5 C-86.68010514 72.47717579 -83.30235888 69.57487839 -79.8125 66.75 C-75.36147808 63.14529915 -71.00801395 59.44629733 -66.6875 55.6875 C-66.05400635 55.13642578 -65.4205127 54.58535156 -64.76782227 54.01757812 C-63.48168345 52.89837515 -62.19563212 51.77907163 -60.90966797 50.65966797 C-53.86727609 44.5392154 -46.80997199 38.43969663 -39.5625 32.5625 C-35.12759433 28.96362957 -30.80453434 25.25244977 -26.5 21.5 C-17.90861634 14.01718198 -9.2046717 6.72547646 0 0 Z " fill="#E46F2E" transform="translate(556,28)"/>
<path d="M0 0 C2.80121743 1.33827286 5.35198864 2.83095784 7.9140625 4.58203125 C8.6656665 5.09507813 9.41727051 5.608125 10.19165039 6.13671875 C10.99465576 6.68972656 11.79766113 7.24273437 12.625 7.8125 C13.46603271 8.39 14.30706543 8.9675 15.17358398 9.5625 C23.12772244 15.04718965 30.96143586 20.69090426 38.77050781 26.37939453 C40.99630975 27.99731758 43.22751316 29.60746242 45.4609375 31.21484375 C55.55800275 38.48168772 65.5909461 45.8317864 75.59570312 53.22509766 C78.0148571 55.01096782 80.43666019 56.79318282 82.859375 58.57421875 C92.94905432 65.99316036 102.99598027 73.46593825 113 81 C111.47709976 85.97292731 108.52911537 89.15115434 105.125 92.9375 C103.94098008 94.27826961 102.7573959 95.61942412 101.57421875 96.9609375 C100.97528809 97.63608398 100.37635742 98.31123047 99.75927734 99.00683594 C97.11941775 101.99765106 94.52734368 105.02838792 91.9375 108.0625 C90.95453542 109.21103023 89.97146223 110.35946752 88.98828125 111.5078125 C88.50053223 112.07790039 88.0127832 112.64798828 87.51025391 113.23535156 C84.88370156 116.3043332 82.25416553 119.3707571 79.625 122.4375 C78.67967432 123.54035328 77.73436137 124.64321748 76.7890625 125.74609375 C76.11278809 126.53282471 76.11278809 126.53282471 75.42285156 127.33544922 C74.39286785 128.54039584 73.3696238 129.75111432 72.35058594 130.96533203 C71.80950195 131.60712402 71.26841797 132.24891602 70.7109375 132.91015625 C70.2164209 133.50062744 69.7219043 134.09109863 69.21240234 134.69946289 C68.81230957 135.12864014 68.4122168 135.55781738 68 136 C67.67 136 67.34 136 67 136 C66.94983869 131.53834423 66.91392821 127.07684626 66.89013672 122.61499023 C66.88019839 121.10324233 66.86664302 119.59151301 66.84912109 118.07983398 C66.59528446 95.58542895 66.59528446 95.58542895 70.6875 85.5 C72.09013202 81.75964794 72.1578412 80.69248079 71 77 C69.58313809 75.01703236 69.58313809 75.01703236 67.69287109 73.25463867 C66.9947934 72.56009079 66.2967157 71.86554291 65.57748413 71.14994812 C64.43698105 70.04511833 64.43698105 70.04511833 63.2734375 68.91796875 C62.49239655 68.14495926 61.71135559 67.37194977 60.90664673 66.57551575 C58.40536529 64.10322984 55.8908796 61.64492113 53.375 59.1875 C50.88310968 56.73832367 48.39410371 54.28628749 45.90762329 51.83161926 C44.36085066 50.30627871 42.8105748 48.78447937 41.25619507 47.26689148 C37.15960036 43.24449522 33.25837358 39.12973174 29.52380371 34.76809692 C27.13782931 31.9996078 24.62503388 29.35254706 22.125 26.6875 C17.56086926 21.7856565 13.2400212 16.74566055 9.046875 11.51953125 C6.52620125 8.41679352 3.88867606 5.43186229 1.21484375 2.4609375 C0 1 0 1 0 0 Z " fill="#030100" transform="translate(62,80)"/>
</svg>
